<?xml version="1.0" encoding="utf-8"?>
<!-- Generator: Adobe Illustrator 16.0.0, SVG Export Plug-In . SVG Version: 6.00 Build 0)  -->
<!DOCTYPE svg PUBLIC "-//W3C//DTD SVG 1.1//EN" "http://www.w3.org/Graphics/SVG/1.1/DTD/svg11.dtd">
<svg version="1.1"
	 id="Artwork" xmlns:dc="http://purl.org/dc/elements/1.1/" xmlns:cc="http://creativecommons.org/ns#" xmlns:rdf="http://www.w3.org/1999/02/22-rdf-syntax-ns#" xmlns:svg="http://www.w3.org/2000/svg" xmlns:sodipodi="http://sodipodi.sourceforge.net/DTD/sodipodi-0.dtd" xmlns:inkscape="http://www.inkscape.org/namespaces/inkscape" sodipodi:docname="lexmark-primary-logo.svg" inkscape:version="0.48.5 r10040"
	 xmlns="http://www.w3.org/2000/svg" xmlns:xlink="http://www.w3.org/1999/xlink" x="0px" y="0px" width="250px" height="50.172px"
	 viewBox="0 0 250 50.172" enable-background="new 0 0 250 50.172" xml:space="preserve">
<sodipodi:namedview  fit-margin-left="0.5" fit-margin-top="0.5" inkscape:cy="337.28657" inkscape:cx="1052.97" inkscape:zoom="0.21919332" showgrid="false" guidetolerance="10" gridtolerance="10" objecttolerance="10" bordercolor="#666666" pagecolor="#ffffff" borderopacity="1" id="namedview3013" inkscape:current-layer="Artwork" inkscape:window-maximized="0" inkscape:window-y="-20" inkscape:window-x="862" inkscape:window-height="1034" inkscape:window-width="1054" inkscape:pageshadow="2" inkscape:pageopacity="0" fit-margin-bottom="0.5" fit-margin-right="0.5">
	</sodipodi:namedview>
<path id="polygon3009" sodipodi:nodetypes="cccccccc" inkscape:connector-curvature="0" fill="#00C425" d="M40.048,0.5H0.5v9.625
	l3.624,14.313l11.337,0.648l9.625-9.625l19.031-4.078L40.048,0.5z"/>
<path id="polygon3005" sodipodi:nodetypes="cccccc" inkscape:connector-curvature="0" fill="#3AF23A" d="M0.5,10.125v39.547h9.624
	l16.093-1.338l-1.131-13.623L0.5,10.125z"/>
<path id="polygon3007" sodipodi:nodetypes="cccccc" inkscape:connector-curvature="0" fill="#006446" d="M10.124,49.672h39.548
	v-9.624l-4.205-12.804L34.71,25.086L10.124,49.672z"/>
<path id="path3011" inkscape:connector-curvature="0" fill="#32323C" d="M238.848,20.007l-8.693,7.913l8.693,7.96v4.585h-0.283
	L225.66,28.75v11.136h-3.74V6.173h3.74v21.057l12.846-11.691h0.342V20.007L238.848,20.007z M70.15,39.886h19.089v-3.767H74.037V7.28
	H70.15V39.886z M102.437,15.588c-5.865,0-11.201,4.763-11.201,12.436c0,7.451,4.894,12.391,11.905,12.391
	c3.13,0,6.04-0.788,8.642-2.684v-4.023c-2.734,2.293-5.781,3.262-8.515,3.262c-4.224,0-7.952-2.612-8.295-7.506h17.826
	c0.044-0.484,0.138-1.527,0.138-1.925C112.936,19.689,108.212,15.588,102.437,15.588z M102.474,18.99
	c3.308,0,6.671,2.142,6.802,7.213H94.972C95.193,22.279,98.196,18.99,102.474,18.99z M165.249,15.588
	c-3.175,0-5.468,1.676-6.833,4.145c-1.148-2.646-3.264-4.145-6.66-4.145c-2.955,0-5.158,1.72-6.35,4.013h-0.088l-0.439-3.527h-2.954
	v23.813h3.791V24.848c0-2.911,1.808-5.644,5.114-5.644c3.22,0,4.631,1.897,4.631,5.335v15.346h3.791V24.583
	c0-2.778,1.854-5.379,5.072-5.379c3.262,0,4.672,1.897,4.672,5.335v15.346h3.795V24.011
	C172.791,19.027,170.451,15.588,165.249,15.588L165.249,15.588z M188.104,15.588c-5.687,0-10.98,4.807-10.98,12.436
	c0,7.539,5.294,12.391,10.98,12.391c3.572,0,6.924-1.676,8.73-4.983h0.044l0.442,4.455h3.087V16.073h-3.087l-0.442,4.454h-0.044
	C195.029,17.264,191.676,15.588,188.104,15.588z M188.811,19.115c4.497,0,7.893,3.616,7.893,8.864c0,5.246-3.396,8.862-7.893,8.862
	c-4.409,0-7.893-3.572-7.893-8.818C180.918,22.688,184.401,19.115,188.811,19.115z M216.575,15.808
	c-2.074,0-5.204,0.971-6.837,4.057h-0.043l-0.396-3.792h-3.042v23.813h3.79V26.172c0-5.512,4.454-7.22,8.115-6.47V15.94
	C217.678,15.853,217.191,15.808,216.575,15.808L216.575,15.808z M137.039,15.538h-0.302l-9.95,9.923l-9.931-9.923h-0.302v4.809
	l7.655,7.66l-7.655,7.608v4.85h0.306l9.88-9.969l9.99,9.969h0.309v-4.887l-7.722-7.643l7.722-7.776V15.538L137.039,15.538z
	 M238.85,6.698V6.173h4.134v0.525h-1.754v4.158h-0.626V6.698H238.85L238.85,6.698z M245.077,6.173l1.784,3.936l1.788-3.936h0.851
	v4.683h-0.586V6.954h-0.012l-1.771,3.902h-0.534l-1.77-3.902h-0.01v3.902h-0.592V6.173H245.077L245.077,6.173z"/>
<path id="polygon3003" sodipodi:nodetypes="ccccc" inkscape:connector-curvature="0" fill="#008A44" d="M49.672,40.048V0.5h-9.624
	L25.085,15.461L49.672,40.048z"/>
</svg>
