<?xml version="1.0" encoding="utf-8"?>
<!-- Generator: Adobe Illustrator 16.0.0, SVG Export Plug-In . SVG Version: 6.00 Build 0)  -->
<!DOCTYPE svg PUBLIC "-//W3C//DTD SVG 1.1//EN" "http://www.w3.org/Graphics/SVG/1.1/DTD/svg11.dtd">
<svg version="1.1" id="Vrstva_1" xmlns="http://www.w3.org/2000/svg" xmlns:xlink="http://www.w3.org/1999/xlink" x="0px" y="0px"
	 width="595.279px" height="121.14px" viewBox="0 360.375 595.279 121.14" enable-background="new 0 360.375 595.279 121.14"
	 xml:space="preserve">
<path fill="#231F20" d="M568.992,364.836h-4.053v-2.441h10.724v2.441h-4.054v13.251h-2.616L568.992,364.836z M578.192,362.395h4.49
	l3.923,13.254h0.263l3.922-13.254h4.49v15.692h-2.526v-13.251h-0.264l-3.966,13.251h-3.575l-3.967-13.251h-0.263v13.251h-2.527
	V362.395z"/>
<path fill="#D92231" d="M407.792,420.896c0-20.35-7.829-38.365-28.67-38.365c-20.881,0-28.926,18.016-28.926,38.365
	c0,20.349,8.045,38.384,28.926,38.384C399.963,459.281,407.792,441.248,407.792,420.896 M438.524,420.896
	c0,34.792-24.607,60.519-59.461,60.519c-35.479,0-59.598-24.646-59.598-60.5c0-33.911,23.804-60.541,59.598-60.541
	C413.915,360.375,438.524,386.122,438.524,420.896"/>
<path fill="#D92231" d="M201.281,409.671h-53.897c0.537-3.873,1.687-7.635,3.404-11.146c4.837-9.694,13.963-15.876,25.364-15.876
	c15.61,0,25.129,10.597,25.129,26.316V409.671z M229.254,410.142c-1.433-15.718-7.202-28.395-16.896-36.952
	c-9.282-8.262-21.743-12.755-37.196-12.755c-11.393,0-25.786,3.945-36.383,12.638c-12.609,10.401-22.422,26.649-22.422,48.55
	c0,18.877,6.152,34.066,17.172,44.33c10.773,10.086,26.069,15.563,44.979,15.563c15.247,0,33.674-5.73,41.523-10.617
	c2.786-1.688,3.669-2.453,2.973-5.24l-4.955-13.971c-0.55-2.236-3.119-2.846-5.161-1.807c-3.114,1.605-6.312,3.047-9.576,4.318
	c-6.81,2.531-13.923,4.258-20.625,4.258c-14.139,0-22.233-3.846-28.375-10.988c-3.906-4.514-6.192-10.186-6.899-16.779h78.114
	c2.806,0,4.081-1.943,4.081-5.299v-5.613C229.607,417.01,229.49,412.752,229.254,410.142"/>
<path fill="#D92231" d="M257.336,377.115c8.831-11.382,22.626-16.583,45.193-16.583c5.338,0.003,10.662,0.536,15.895,1.59
	c2.649,0.628,3.082,2.727,2.571,5.455l-2.669,13.148c-0.588,2.454-1.295,3.16-3.218,3.16c-0.531-0.004-1.063-0.044-1.589-0.118
	c-1.865-0.254-7.184-0.824-9.381-0.824c-11.225,0-16.543,2.806-20.556,7.006c-4.661,5.004-4.799,12.363-4.799,25.53v58.459
	c0,3.848-1.688,6.006-5.809,6.006h-17.857c-3.807,0-5.455-1.885-5.771-6.006V416.54C249.348,395.64,250.556,385.848,257.336,377.115
	"/>
<path fill="#D92231" d="M499.397,401.448c3.993-4.18,13.306-15.679,23.618-35.146c1.756-3.337,3.336-4.18,5.642-4.18h19.152
	c1.747,0,3.808,0.843,2.688,4.18c-7.613,22.586-25.001,42.426-34.616,52.67c10.47,9.929,29.082,33.438,37.824,56.517
	c0.776,2.08,0.394,4.455-3.974,4.455h-22.92c-2.354,0-4.249-0.217-5.828-4.16c-5.681-14.15-14.561-29.023-24.707-38.797
	c-11.107,11.773-19.525,26.256-25.197,38.797c-1.412,3.08-2.786,4.16-5.818,4.16h-21.027c-1.423,0-2.854-1.629-1.923-4.16
	c6.251-17.152,18.702-38.502,36.56-54.575c-14.05-16.916-27.503-37.541-32.802-54.907c-0.814-2.61,0.58-4.18,2.542-4.18h24.677
	c2.698,0,4.092,1.099,5.406,4.18C484.778,380.451,493.07,393.933,499.397,401.448"/>
<path fill="#D92231" d="M57.367,401.448c3.983-4.18,13.286-15.679,23.638-35.146c1.736-3.337,3.287-4.18,5.622-4.18h19.192
	c1.707,0,3.768,0.843,2.649,4.18c-7.654,22.586-25.021,42.426-34.637,52.67c10.499,9.948,29.103,33.458,37.895,56.517
	c0.745,2.08,0.352,4.455-4.053,4.455h-22.94c-2.365,0-4.16-0.217-5.779-4.16c-5.672-14.15-14.58-29.023-24.706-38.777
	c-11.098,11.754-19.526,26.258-25.228,38.777c-1.363,3.08-2.737,4.16-5.779,4.16H2.224c-1.412,0-2.845-1.629-1.941-4.16
	c6.259-17.152,18.721-38.502,36.519-54.575C22.868,404.294,9.348,383.669,4.05,366.303c-0.805-2.61,0.607-4.18,2.541-4.18h24.678
	c2.688,0,4.062,1.099,5.426,4.18C42.729,380.451,51.049,393.933,57.367,401.448"/>
</svg>
